<svg width="584" height="671" viewBox="0 0 584 671" fill="none" xmlns="http://www.w3.org/2000/svg">
<path d="M12.6531 612.785L7.70881 643.096L0.84436 670.643H583.05V590.189L574.727 585.036L517.259 551.348L472.871 518.057L441.734 497.255L434.86 489.16L427.32 482.507L420.001 478.626H410.576L399.775 465.635L387.607 443.01L382.789 424.854V399.946C382.789 398.068 380.421 388.105 380.421 387.697C380.421 387.37 382 380.592 382.789 377.244L387.607 371.119L392.916 360.421C395.175 358.461 399.71 354.312 399.775 353.398C399.841 352.483 401.436 345.504 402.225 342.128C403.26 338.943 405.378 332.475 405.574 332.083C405.819 331.593 409.493 325.632 409.738 324.08C409.983 322.529 413.658 318.527 414.148 317.221C414.638 315.914 414.393 309.708 414.638 307.176C414.834 305.151 416.244 302.14 416.925 300.888C418.912 299.608 422.935 296.984 423.131 296.723C423.376 296.396 427.133 287.413 427.378 286.842C427.574 286.384 430.944 281.642 432.604 279.328L438.647 271.489L440.117 269.284C441.587 267.133 444.527 262.734 444.527 262.342C444.527 261.852 444.364 258.749 444.527 257.606C444.691 256.463 445.997 250.664 445.997 249.276C445.997 248.165 447.848 246.527 448.774 245.846L450.162 240.13L449.754 234.74L451.55 229.513C451.55 228.778 451.42 227.161 450.897 226.573C450.374 225.985 450.679 221.919 450.897 219.959C451.496 218.897 452.792 216.643 453.184 216.12C453.674 215.467 452.694 206.076 452.694 205.586V200.931C452.313 198.508 451.55 193.5 451.55 192.846C451.55 192.193 451.986 187.837 452.204 185.741C452.966 184.816 454.686 182.442 455.47 180.352C456.254 178.261 454.708 170.824 453.837 167.367C453.347 164.318 452.661 157.894 453.837 156.587C455.013 155.281 458.791 157.132 460.533 158.221C462.466 157.976 466.822 157.469 468.782 157.404C470.741 157.339 478.799 148.611 482.583 144.256C484.08 141.234 487.27 133.656 488.054 127.515C489.034 119.839 485.604 117.47 485.523 117.062C485.441 116.654 480.133 110.202 479.643 109.712C479.251 109.32 475.56 105.956 473.763 104.322L470.17 99.4225V95.0126C470.17 94.5226 472.538 89.7861 472.456 88.8878C472.375 87.9895 470.415 83.3346 470.17 82.6813C469.925 82.028 467.965 79.2514 467.475 78.4348C466.985 77.6182 460.942 74.7599 460.37 74.3516C459.913 74.0249 453.701 71.7656 450.652 70.6767C448.91 67.6551 445.377 61.5467 445.181 61.2853C444.985 61.024 441.451 58.6176 439.709 57.4471L429.174 52.8739L421.416 47.6474L410.147 42.1759C409.276 41.0054 407.468 38.5501 407.207 38.0927C406.88 37.5211 405.655 35.5612 405.165 34.8262C404.773 34.2382 400.919 33.3834 399.04 33.0296L391.282 29.9263C389.703 28.1842 386.48 24.6182 386.219 24.2915C385.892 23.8832 380.584 19.9633 380.013 19.3917C379.555 18.9343 378.08 17.7312 377.399 17.1867L365.476 15.9618C362.564 15.0362 356.624 13.1525 356.167 13.0219C355.595 12.8585 351.675 12.3686 351.267 12.4502C350.859 12.5319 346.367 14.3285 345.632 14.3285H335.914C334.58 13.5935 331.831 12.0256 331.504 11.6336C331.178 11.2416 326.686 9.89141 324.481 9.26532H318.928L307.658 5.91709L301.533 2.07888C300.091 1.67056 297.091 0.837584 296.634 0.772253C296.062 0.690589 287.487 0.282267 286.671 0.282267C285.854 0.282267 280.056 0.200603 279.076 0.282267C278.096 0.363931 274.421 1.67056 273.523 2.07888C272.624 2.4872 268.296 5.91709 267.48 6.89706C266.663 7.87703 265.111 8.12202 264.54 8.53034C264.082 8.857 257.544 10.2453 254.332 10.8986L255.312 5.91709H248.697C248.305 5.91709 244.015 6.5704 241.919 6.89706L233.262 9.83696H225.423C222.673 10.6264 217.027 12.2379 216.439 12.3685C215.852 12.4992 212.601 13.2941 211.05 13.6752C207.62 14.1924 200.597 15.2595 199.943 15.3901C199.127 15.5534 193.165 16.1251 190.96 16.2884C188.755 16.4518 184.754 17.5134 184.264 17.84C183.774 18.1667 176.914 20.8616 176.424 20.8616C176.032 20.8616 171.198 22.1138 168.829 22.7399L159.846 24.4548L151.762 22.7399C149.611 23.0938 145.114 23.8342 144.33 23.9648C143.35 24.1282 136.899 25.7615 136.409 26.0881C136.017 26.3494 132.217 29.1369 130.366 30.498L128.814 43.7276H123.996C123.408 43.7276 119.395 44.3809 117.463 44.7075L105.948 46.4225L98.6799 48.6274L90.9218 57.0388C89.9963 59.4343 88.1289 64.4539 88.0635 65.3685C87.9819 66.5118 87.5736 72.9633 87.4919 73.6983C87.4266 74.2863 85.3958 80.0408 84.3887 82.8447L80.6321 84.7229L76.7939 90.9294L81.6121 102.036L79.1622 97.7075C77.4744 96.3464 74.001 93.51 73.609 93.0527C73.119 92.481 69.1991 94.2776 68.9541 94.6043C68.7582 94.8656 68.2192 98.1431 67.9742 99.7491L72.3024 110.365C73.2551 111.863 75.2749 115.004 75.7323 115.592C76.3039 116.327 78.7538 119.675 79.1622 120.165C79.4888 120.557 82.7826 123.432 84.3887 124.82C81.9115 124.303 76.7122 123.154 75.7323 122.697C74.7523 122.239 71.6218 120.002 70.1791 118.94V127.107C70.1791 127.956 72.7924 130.999 74.099 132.415C74.834 135.273 76.3202 141.12 76.3856 141.643C76.4509 142.165 79.0261 145.018 80.3055 146.379L87.0019 148.094L94.6783 149.564L91.5751 153.811L93.29 161.324L97.7816 164.182L106.765 163.692L121.219 161.324C120.484 163.474 118.998 167.857 118.933 168.184C118.867 168.51 116.619 174.635 115.503 177.657L105.785 204.443L99.8232 208.852L97.6999 214.161H95.495L94.1883 215.712V221.265L95.0867 222.654V226.002L94.1883 226.492L93.2084 229.187L95.495 231.882V242.253L79.6521 255.809L73.6907 260.709L68.4642 266.671L66.0959 272.06L65.3609 279.982L67.0759 285.78L72.5474 293.701L80.2238 298.683L84.1437 300.969L85.8586 303.501L84.552 307.339C83.3542 309.49 80.9588 313.872 80.9588 314.199C80.9588 314.607 78.5905 318.527 78.3455 319.262C78.1495 319.85 77.8283 322.066 77.6922 323.1L80.9588 328.653L84.552 330.205V333.227L81.6121 334.86L79.4888 338.29C79.6794 340.168 80.0931 344.023 80.2238 344.415C80.3544 344.807 82.8915 346.647 84.1437 347.518L87.8186 352.581L87.4102 356.909L84.1437 364.994L83.2454 370.139L84.552 374.304L83.2454 378.387V383.613C83.2454 384.463 84.6609 386.199 85.3686 386.962V389.575L86.6753 393.413L89.6968 397.17L90.6768 401.416L93.29 405.336L98.6799 409.174L107.745 410.318L123.506 409.746H141.227L154.701 409.093H167.931L176.669 412.114L184.019 417.341L189.654 424.854L196.922 438.083L203.292 451.721L203.98 455.424L200.756 473.266L197.746 474.986L178.828 484.015L167.005 489.604L145.722 496.269L116.271 503.578L93.6984 509.167L78.4352 514.971L60.3774 523.355L43.1795 534.104L30.711 553.237L18.8874 580.109L12.6531 612.785Z" fill="#763535"/>
</svg>
